<svg width="175" height="24" viewBox="0 0 175 24" fill="none" xmlns="http://www.w3.org/2000/svg">
<g filter="url(#filter0_d_3_171)">
<path d="M4.2 15L9.52 1.28H11.92L17.22 15H14.98L13.78 11.92H7.5L6.28 15H4.2ZM8.08 10.3H13.18L10.68 3.68H10.6L8.08 10.3ZM21.3641 15L17.5241 4.78H19.6641L22.4841 12.56H22.5641L25.4241 4.78H27.3641L23.4841 15H21.3641ZM31.9305 15.2C31.3838 15.2 30.8571 15.1133 30.3505 14.94C29.8571 14.7667 29.4505 14.4733 29.1305 14.06C28.8238 13.6333 28.6705 13.06 28.6705 12.34C28.6705 11.6067 28.8305 11.02 29.1505 10.58C29.4838 10.1267 29.9505 9.78 30.5505 9.54C31.1638 9.3 31.8905 9.14 32.7305 9.06C33.5838 8.98 34.5171 8.94 35.5305 8.94V7.9C35.5305 7.18 35.3505 6.68 34.9905 6.4C34.6438 6.10667 34.0905 5.96 33.3305 5.96C32.6905 5.96 32.1371 6.1 31.6705 6.38C31.2038 6.64667 30.9705 7.07333 30.9705 7.66V7.9H29.0305C29.0171 7.83333 29.0105 7.76667 29.0105 7.7C29.0105 7.62 29.0105 7.54 29.0105 7.46C29.0105 6.87333 29.1905 6.36667 29.5505 5.94C29.9238 5.5 30.4238 5.16667 31.0505 4.94C31.6905 4.7 32.4171 4.58 33.2305 4.58H33.5105C34.8571 4.58 35.8571 4.84667 36.5105 5.38C37.1771 5.91333 37.5105 6.68 37.5105 7.68V13.1C37.5105 13.34 37.5638 13.5133 37.6705 13.62C37.7771 13.7267 37.9038 13.78 38.0505 13.78C38.1971 13.78 38.3505 13.7533 38.5105 13.7C38.6838 13.6467 38.8371 13.58 38.9705 13.5V14.78C38.7971 14.9133 38.5838 15.0133 38.3305 15.08C38.0771 15.16 37.7771 15.2 37.4305 15.2C37.0038 15.2 36.6571 15.12 36.3905 14.96C36.1371 14.7867 35.9505 14.56 35.8305 14.28C35.7105 14 35.6371 13.6867 35.6105 13.34C35.2238 13.94 34.7171 14.4 34.0905 14.72C33.4771 15.04 32.7571 15.2 31.9305 15.2ZM32.7305 13.78C33.1971 13.78 33.6438 13.68 34.0705 13.48C34.4971 13.2667 34.8438 12.9467 35.1105 12.52C35.3905 12.0933 35.5305 11.56 35.5305 10.92V10.16C34.5305 10.16 33.6705 10.2133 32.9505 10.32C32.2305 10.4133 31.6771 10.6 31.2905 10.88C30.9171 11.16 30.7305 11.5933 30.7305 12.18C30.7305 12.74 30.8971 13.1467 31.2305 13.4C31.5638 13.6533 32.0638 13.78 32.7305 13.78ZM41.4236 15V4.78H43.4236V15H41.4236ZM41.3636 2.28V0.599999H43.4836V2.28H41.3636ZM46.8495 15V0.599999H48.8495V15H46.8495ZM54.7039 15.2C54.1572 15.2 53.6306 15.1133 53.1239 14.94C52.6306 14.7667 52.2239 14.4733 51.9039 14.06C51.5972 13.6333 51.4439 13.06 51.4439 12.34C51.4439 11.6067 51.6039 11.02 51.9239 10.58C52.2572 10.1267 52.7239 9.78 53.3239 9.54C53.9372 9.3 54.6639 9.14 55.5039 9.06C56.3572 8.98 57.2906 8.94 58.3039 8.94V7.9C58.3039 7.18 58.1239 6.68 57.7639 6.4C57.4172 6.10667 56.8639 5.96 56.1039 5.96C55.4639 5.96 54.9106 6.1 54.4439 6.38C53.9772 6.64667 53.7439 7.07333 53.7439 7.66V7.9H51.8039C51.7906 7.83333 51.7839 7.76667 51.7839 7.7C51.7839 7.62 51.7839 7.54 51.7839 7.46C51.7839 6.87333 51.9639 6.36667 52.3239 5.94C52.6972 5.5 53.1972 5.16667 53.8239 4.94C54.4639 4.7 55.1906 4.58 56.0039 4.58H56.2839C57.6306 4.58 58.6306 4.84667 59.2839 5.38C59.9506 5.91333 60.2839 6.68 60.2839 7.68V13.1C60.2839 13.34 60.3372 13.5133 60.4439 13.62C60.5506 13.7267 60.6772 13.78 60.8239 13.78C60.9706 13.78 61.1239 13.7533 61.2839 13.7C61.4572 13.6467 61.6106 13.58 61.7439 13.5V14.78C61.5706 14.9133 61.3572 15.0133 61.1039 15.08C60.8506 15.16 60.5506 15.2 60.2039 15.2C59.7772 15.2 59.4306 15.12 59.1639 14.96C58.9106 14.7867 58.7239 14.56 58.6039 14.28C58.4839 14 58.4106 13.6867 58.3839 13.34C57.9972 13.94 57.4906 14.4 56.8639 14.72C56.2506 15.04 55.5306 15.2 54.7039 15.2ZM55.5039 13.78C55.9706 13.78 56.4172 13.68 56.8439 13.48C57.2706 13.2667 57.6172 12.9467 57.8839 12.52C58.1639 12.0933 58.3039 11.56 58.3039 10.92V10.16C57.3039 10.16 56.4439 10.2133 55.7239 10.32C55.0039 10.4133 54.4506 10.6 54.0639 10.88C53.6906 11.16 53.5039 11.5933 53.5039 12.18C53.5039 12.74 53.6706 13.1467 54.0039 13.4C54.3372 13.6533 54.8372 13.78 55.5039 13.78ZM68.937 15.2C67.4037 15.2 66.2504 14.5867 65.477 13.36L64.777 15H64.037V0.599999H66.037V6.08C66.317 5.66667 66.717 5.31333 67.237 5.02C67.7704 4.72667 68.3904 4.58 69.097 4.58C69.8304 4.58 70.497 4.75333 71.097 5.1C71.7104 5.44667 72.197 5.98 72.557 6.7C72.917 7.42 73.097 8.33333 73.097 9.44V9.84C73.097 11.08 72.9037 12.1 72.517 12.9C72.1437 13.6867 71.6437 14.2667 71.017 14.64C70.3904 15.0133 69.697 15.2 68.937 15.2ZM68.557 13.78C69.0237 13.78 69.437 13.6667 69.797 13.44C70.1704 13.2133 70.4637 12.8467 70.677 12.34C70.9037 11.8333 71.017 11.1667 71.017 10.34V9.22C71.017 8.5 70.9104 7.90667 70.697 7.44C70.4837 6.96 70.197 6.60667 69.837 6.38C69.477 6.14 69.0637 6.02 68.597 6.02C68.1437 6.02 67.717 6.14 67.317 6.38C66.9304 6.60667 66.617 6.96 66.377 7.44C66.137 7.90667 66.017 8.50667 66.017 9.24V10.36C66.017 11.2 66.1304 11.8733 66.357 12.38C66.597 12.8733 66.9037 13.2333 67.277 13.46C67.6637 13.6733 68.0904 13.78 68.557 13.78ZM75.8144 15V0.599999H77.8144V15H75.8144ZM85.1688 15.2C84.2621 15.2 83.4621 15.0067 82.7688 14.62C82.0888 14.22 81.5554 13.64 81.1688 12.88C80.7821 12.1067 80.5888 11.18 80.5888 10.1V9.68C80.5888 8.58667 80.7888 7.66 81.1888 6.9C81.6021 6.14 82.1621 5.56667 82.8688 5.18C83.5754 4.78 84.3821 4.58 85.2888 4.58H85.5088C86.3354 4.58 87.0688 4.75333 87.7088 5.1C88.3488 5.44667 88.8421 5.94 89.1888 6.58C89.5488 7.22 89.7288 7.98 89.7288 8.86V10.14H82.6688C82.6688 10.9 82.7688 11.5533 82.9688 12.1C83.1821 12.6467 83.4821 13.0667 83.8688 13.36C84.2688 13.64 84.7554 13.78 85.3288 13.78C85.8088 13.78 86.2354 13.6867 86.6088 13.5C86.9821 13.3133 87.2821 13.0267 87.5088 12.64C87.7354 12.2533 87.8488 11.7733 87.8488 11.2H89.7288C89.7288 12.0133 89.5354 12.72 89.1488 13.32C88.7621 13.92 88.2354 14.3867 87.5688 14.72C86.9154 15.04 86.1754 15.2 85.3487 15.2H85.1688ZM82.6888 8.94H87.7688C87.7688 7.94 87.5488 7.2 87.1088 6.72C86.6821 6.24 86.0821 6 85.3088 6C84.6021 6 83.9954 6.24667 83.4888 6.74C82.9954 7.23333 82.7288 7.96667 82.6888 8.94ZM97.2458 15V1.28H103.466C104.186 1.28 104.806 1.42 105.326 1.7C105.859 1.96667 106.266 2.34667 106.546 2.84C106.839 3.32 106.986 3.87333 106.986 4.5C106.986 5.18 106.866 5.74667 106.626 6.2C106.386 6.65333 106.079 7.00667 105.706 7.26C105.346 7.51333 104.986 7.7 104.626 7.82V7.94C104.852 7.98 105.119 8.06 105.426 8.18C105.732 8.3 106.026 8.48 106.306 8.72C106.599 8.94667 106.839 9.25333 107.026 9.64C107.212 10.0267 107.306 10.5067 107.306 11.08C107.306 11.8267 107.132 12.5 106.786 13.1C106.452 13.6867 105.992 14.1533 105.406 14.5C104.819 14.8333 104.146 15 103.386 15H97.2458ZM99.3058 13.34H102.986C103.412 13.34 103.792 13.24 104.126 13.04C104.459 12.8267 104.719 12.5467 104.906 12.2C105.106 11.8533 105.206 11.4733 105.206 11.06C105.206 10.62 105.106 10.2333 104.906 9.9C104.706 9.56667 104.439 9.30667 104.106 9.12C103.772 8.93333 103.399 8.84 102.986 8.84H99.3058V13.34ZM99.3058 7.18H102.766C103.192 7.18 103.566 7.08 103.886 6.88C104.219 6.66667 104.472 6.39333 104.646 6.06C104.832 5.71333 104.926 5.34 104.926 4.94C104.926 4.3 104.759 3.80667 104.426 3.46C104.106 3.1 103.632 2.92 103.006 2.92H99.3058V7.18ZM112.692 15.2C112.146 15.2 111.619 15.1133 111.112 14.94C110.619 14.7667 110.212 14.4733 109.892 14.06C109.586 13.6333 109.432 13.06 109.432 12.34C109.432 11.6067 109.592 11.02 109.912 10.58C110.246 10.1267 110.712 9.78 111.312 9.54C111.926 9.3 112.652 9.14 113.492 9.06C114.346 8.98 115.279 8.94 116.292 8.94V7.9C116.292 7.18 116.112 6.68 115.752 6.4C115.406 6.10667 114.852 5.96 114.092 5.96C113.452 5.96 112.899 6.1 112.432 6.38C111.966 6.64667 111.732 7.07333 111.732 7.66V7.9H109.792C109.779 7.83333 109.772 7.76667 109.772 7.7C109.772 7.62 109.772 7.54 109.772 7.46C109.772 6.87333 109.952 6.36667 110.312 5.94C110.686 5.5 111.186 5.16667 111.812 4.94C112.452 4.7 113.179 4.58 113.992 4.58H114.272C115.619 4.58 116.619 4.84667 117.272 5.38C117.939 5.91333 118.272 6.68 118.272 7.68V13.1C118.272 13.34 118.326 13.5133 118.432 13.62C118.539 13.7267 118.666 13.78 118.812 13.78C118.959 13.78 119.112 13.7533 119.272 13.7C119.446 13.6467 119.599 13.58 119.732 13.5V14.78C119.559 14.9133 119.346 15.0133 119.092 15.08C118.839 15.16 118.539 15.2 118.192 15.2C117.766 15.2 117.419 15.12 117.152 14.96C116.899 14.7867 116.712 14.56 116.592 14.28C116.472 14 116.399 13.6867 116.372 13.34C115.986 13.94 115.479 14.4 114.852 14.72C114.239 15.04 113.519 15.2 112.692 15.2ZM113.492 13.78C113.959 13.78 114.406 13.68 114.832 13.48C115.259 13.2667 115.606 12.9467 115.872 12.52C116.152 12.0933 116.292 11.56 116.292 10.92V10.16C115.292 10.16 114.432 10.2133 113.712 10.32C112.992 10.4133 112.439 10.6 112.052 10.88C111.679 11.16 111.492 11.5933 111.492 12.18C111.492 12.74 111.659 13.1467 111.992 13.4C112.326 13.6533 112.826 13.78 113.492 13.78ZM122.025 15V0.599999H124.025V15H122.025ZM129.88 15.2C129.333 15.2 128.806 15.1133 128.3 14.94C127.806 14.7667 127.4 14.4733 127.08 14.06C126.773 13.6333 126.62 13.06 126.62 12.34C126.62 11.6067 126.78 11.02 127.1 10.58C127.433 10.1267 127.9 9.78 128.5 9.54C129.113 9.3 129.84 9.14 130.68 9.06C131.533 8.98 132.466 8.94 133.48 8.94V7.9C133.48 7.18 133.3 6.68 132.94 6.4C132.593 6.10667 132.04 5.96 131.28 5.96C130.64 5.96 130.086 6.1 129.62 6.38C129.153 6.64667 128.92 7.07333 128.92 7.66V7.9H126.98C126.966 7.83333 126.96 7.76667 126.96 7.7C126.96 7.62 126.96 7.54 126.96 7.46C126.96 6.87333 127.14 6.36667 127.5 5.94C127.873 5.5 128.373 5.16667 129 4.94C129.64 4.7 130.366 4.58 131.18 4.58H131.46C132.806 4.58 133.806 4.84667 134.46 5.38C135.126 5.91333 135.46 6.68 135.46 7.68V13.1C135.46 13.34 135.513 13.5133 135.62 13.62C135.726 13.7267 135.853 13.78 136 13.78C136.146 13.78 136.3 13.7533 136.46 13.7C136.633 13.6467 136.786 13.58 136.92 13.5V14.78C136.746 14.9133 136.533 15.0133 136.28 15.08C136.026 15.16 135.726 15.2 135.38 15.2C134.953 15.2 134.606 15.12 134.34 14.96C134.086 14.7867 133.9 14.56 133.78 14.28C133.66 14 133.586 13.6867 133.56 13.34C133.173 13.94 132.666 14.4 132.04 14.72C131.426 15.04 130.706 15.2 129.88 15.2ZM130.68 13.78C131.146 13.78 131.593 13.68 132.02 13.48C132.446 13.2667 132.793 12.9467 133.06 12.52C133.34 12.0933 133.48 11.56 133.48 10.92V10.16C132.48 10.16 131.62 10.2133 130.9 10.32C130.18 10.4133 129.626 10.6 129.24 10.88C128.866 11.16 128.68 11.5933 128.68 12.18C128.68 12.74 128.846 13.1467 129.18 13.4C129.513 13.6533 130.013 13.78 130.68 13.78ZM139.213 15V4.78H140.653L140.933 6.28C141.306 5.72 141.786 5.3 142.373 5.02C142.973 4.72667 143.619 4.58 144.313 4.58C145.019 4.58 145.639 4.71333 146.173 4.98C146.719 5.24667 147.146 5.64667 147.453 6.18C147.759 6.7 147.913 7.35333 147.913 8.14V15H145.913V8.48C145.913 7.64 145.719 7.04 145.333 6.68C144.946 6.30667 144.399 6.12 143.693 6.12C143.239 6.12 142.819 6.23333 142.433 6.46C142.059 6.68667 141.759 6.99333 141.533 7.38C141.319 7.75333 141.213 8.18667 141.213 8.68V15H139.213ZM155.087 15.2C154.234 15.2 153.474 14.9933 152.807 14.58C152.141 14.1533 151.614 13.56 151.227 12.8C150.854 12.04 150.667 11.1467 150.667 10.12V9.64C150.667 8.86667 150.781 8.17333 151.007 7.56C151.247 6.93333 151.567 6.4 151.967 5.96C152.381 5.50667 152.861 5.16667 153.407 4.94C153.967 4.7 154.567 4.58 155.207 4.58H155.427C156.267 4.58 157.001 4.75333 157.627 5.1C158.254 5.43333 158.741 5.91333 159.087 6.54C159.447 7.15333 159.627 7.9 159.627 8.78H157.847C157.847 8.15333 157.741 7.63333 157.527 7.22C157.314 6.80667 157.021 6.5 156.647 6.3C156.274 6.1 155.854 6 155.387 6C154.627 6 153.994 6.26 153.487 6.78C152.994 7.3 152.747 8.08667 152.747 9.14V10.6C152.747 11.6533 152.994 12.4467 153.487 12.98C153.981 13.5133 154.621 13.78 155.407 13.78C155.901 13.78 156.334 13.6867 156.707 13.5C157.081 13.3 157.374 13 157.587 12.6C157.801 12.1867 157.907 11.6533 157.907 11H159.627C159.627 11.8933 159.434 12.6533 159.047 13.28C158.674 13.9067 158.161 14.3867 157.507 14.72C156.867 15.04 156.141 15.2 155.327 15.2H155.087ZM166.321 15.2C165.414 15.2 164.614 15.0067 163.921 14.62C163.241 14.22 162.708 13.64 162.321 12.88C161.934 12.1067 161.741 11.18 161.741 10.1V9.68C161.741 8.58667 161.941 7.66 162.341 6.9C162.754 6.14 163.314 5.56667 164.021 5.18C164.728 4.78 165.534 4.58 166.441 4.58H166.661C167.488 4.58 168.221 4.75333 168.861 5.1C169.501 5.44667 169.994 5.94 170.341 6.58C170.701 7.22 170.881 7.98 170.881 8.86V10.14H163.821C163.821 10.9 163.921 11.5533 164.121 12.1C164.334 12.6467 164.634 13.0667 165.021 13.36C165.421 13.64 165.908 13.78 166.481 13.78C166.961 13.78 167.388 13.6867 167.761 13.5C168.134 13.3133 168.434 13.0267 168.661 12.64C168.888 12.2533 169.001 11.7733 169.001 11.2H170.881C170.881 12.0133 170.688 12.72 170.301 13.32C169.914 13.92 169.388 14.3867 168.721 14.72C168.068 15.04 167.328 15.2 166.501 15.2H166.321ZM163.841 8.94H168.921C168.921 7.94 168.701 7.2 168.261 6.72C167.834 6.24 167.234 6 166.461 6C165.754 6 165.148 6.24667 164.641 6.74C164.148 7.23333 163.881 7.96667 163.841 8.94Z" fill="white" fill-opacity="0.6" shape-rendering="crispEdges"/>
</g>
<defs>
<filter id="filter0_d_3_171" x="0.199997" y="0.599998" width="174.681" height="22.6" filterUnits="userSpaceOnUse" color-interpolation-filters="sRGB">
<feFlood flood-opacity="0" result="BackgroundImageFix"/>
<feColorMatrix in="SourceAlpha" type="matrix" values="0 0 0 0 0 0 0 0 0 0 0 0 0 0 0 0 0 0 127 0" result="hardAlpha"/>
<feOffset dy="4"/>
<feGaussianBlur stdDeviation="2"/>
<feComposite in2="hardAlpha" operator="out"/>
<feColorMatrix type="matrix" values="0 0 0 0 0 0 0 0 0 0 0 0 0 0 0 0 0 0 0.25 0"/>
<feBlend mode="normal" in2="BackgroundImageFix" result="effect1_dropShadow_3_171"/>
<feBlend mode="normal" in="SourceGraphic" in2="effect1_dropShadow_3_171" result="shape"/>
</filter>
</defs>
</svg>
