<svg width="50" height="50" viewBox="0 0 50 50" fill="none" xmlns="http://www.w3.org/2000/svg">
<rect width="50" height="50" rx="10" fill="#F7941F"/>
<path d="M41.9846 29.4373C39.6742 38.6744 30.3156 44.2919 21.0771 41.9872C11.8385 39.6824 6.21529 30.3273 8.51442 21.0873C10.8136 11.8474 20.1652 6.21839 29.4066 8.51187C33.8517 9.61503 37.6755 12.4408 40.035 16.3662C42.3945 20.2916 43.0959 24.9942 41.9846 29.4373Z" fill="#F7941F"/>
<path fill-rule="evenodd" clip-rule="evenodd" d="M32.8563 22.7984C33.198 20.5041 31.4406 19.2675 29.0487 18.4376L29.8297 15.3297L27.9422 14.8578L27.1774 17.8844L25.6642 17.5264L26.4289 14.4836L24.5251 14.0117L23.7604 17.1196L22.54 16.843L19.9203 16.1921L19.4158 18.2098C19.4158 18.2098 20.8152 18.5352 20.7989 18.5515C21.3443 18.6194 21.735 19.1114 21.6776 19.658L20.7989 23.2052H20.7827L19.546 28.0867C19.4901 28.2595 19.3678 28.4029 19.206 28.4854C19.0442 28.5678 18.8562 28.5824 18.6836 28.5261L17.3005 28.1844L16.373 30.3485L18.83 30.9668L20.1806 31.3248L19.3996 34.4652L21.2871 34.9371L22.0681 31.8292L23.5651 32.2197L22.8003 35.3114L24.6879 35.7832L25.4852 32.6428C28.7395 33.2611 31.1315 33.0008 32.1566 30.0882C32.6007 29.2586 32.664 28.2774 32.3302 27.3976C31.9964 26.5179 31.2981 25.8257 30.4155 25.4995C31.7551 25.2189 32.7453 24.0825 32.84 22.7171L32.8563 22.7984ZM28.4954 28.8678C27.9598 31.0104 24.5942 30.1325 23.0516 29.7302C22.9072 29.6925 22.7788 29.659 22.6701 29.6326L23.6952 25.4507C23.8277 25.4843 23.9903 25.5211 24.1746 25.5629C25.7791 25.9263 29.0354 26.664 28.4954 28.8678ZM24.5023 23.6264C25.7695 23.9658 28.5888 24.7209 29.0813 22.7659H29.1139C29.6065 20.7807 26.9247 20.1633 25.6422 19.8681C25.4846 19.8318 25.3481 19.8004 25.2412 19.7719L24.1998 23.5469C24.2861 23.5685 24.3879 23.5957 24.5023 23.6264Z" fill="white"/>
</svg>
